<svg id="bottonleftcard" xmlns="http://www.w3.org/2000/svg" width="14.038" height="13.134" viewBox="0 0 14.038 13.134">
  <g id="Group_3189" data-name="Group 3189">
    <path id="Path_9509" data-name="Path 9509" d="M158.7,582.482a.68.68,0,0,0-.768-.118l-9.023-10.575a.79.79,0,1,0-1.179.1.908.908,0,0,0,.093.073l-2.322,5.57a.569.569,0,0,0-.468.167.579.579,0,0,0,.836.8c.013-.014.017-.032.03-.047l11.66,4.45a.671.671,0,0,0,.2.563.683.683,0,0,0,.946-.986Zm-12.848-4.8c-.01-.009-.023-.012-.032-.02l2.321-5.565a.8.8,0,0,0,.507-.083l9.011,10.561-11.637-4.441A.571.571,0,0,0,145.85,577.682Z" transform="translate(-144.87 -570.525)" fill="#f8a300"/>
  </g>
</svg>
