<svg xmlns="http://www.w3.org/2000/svg" width="214.097" height="50.736" viewBox="0 0 214.097 50.736">
  <g id="LOGOFooter" transform="translate(-822.761 -69.487)">
    <g id="Group_2" data-name="Group 2" transform="translate(890.169 75.338)">
      <path id="Path_4" data-name="Path 4" d="M923.075,95.171v.109a1.135,1.135,0,0,1-1.135,1.136H910.315a1.136,1.136,0,0,1-1.135-1.136V78.4a1.135,1.135,0,0,1,1.135-1.135h11.242a1.135,1.135,0,0,1,1.135,1.135v.109a1.136,1.136,0,0,1-1.135,1.136H913.05a1.135,1.135,0,0,0-1.135,1.135v3.611a1.135,1.135,0,0,0,1.135,1.135h7.331a1.135,1.135,0,0,1,1.135,1.135v.055a1.135,1.135,0,0,1-1.135,1.136H913.05a1.135,1.135,0,0,0-1.135,1.135V92.9a1.135,1.135,0,0,0,1.135,1.135h8.89A1.135,1.135,0,0,1,923.075,95.171Z" transform="translate(-909.18 -77.05)" fill="#444"/>
      <path id="Path_5" data-name="Path 5" d="M933.888,90.734h3.434a1.135,1.135,0,0,1,0,2.271h-3.434a1.135,1.135,0,0,1,0-2.271Z" transform="translate(-914.366 -80.012)" fill="#444"/>
      <path id="Path_6" data-name="Path 6" d="M962.687,78.859l-7.4,16.877a1.135,1.135,0,0,1-1.039.679H953.02a1.135,1.135,0,0,1-1.039-.679l-7.426-16.876a1.135,1.135,0,0,1,1.039-1.592h.473a1.135,1.135,0,0,1,1.04.679l5.559,12.685a1.135,1.135,0,0,0,2.078,0l5.607-12.692a1.135,1.135,0,0,1,1.038-.676h.258A1.135,1.135,0,0,1,962.687,78.859Z" transform="translate(-916.941 -77.05)" fill="#444"/>
      <path id="Path_7" data-name="Path 7" d="M977.9,82.422l-5.856,13.316a1.135,1.135,0,0,1-1.039.679h-.317a1.135,1.135,0,0,1-1.034-1.6L977.3,77.936a1.136,1.136,0,0,1,1.034-.667h1.245a1.136,1.136,0,0,1,1.034.665l7.667,16.877a1.135,1.135,0,0,1-1.033,1.6h-.368a1.134,1.134,0,0,1-1.039-.679l-5.857-13.316A1.135,1.135,0,0,0,977.9,82.422Z" transform="translate(-922.462 -77.05)" fill="#444"/>
      <path id="Path_8" data-name="Path 8" d="M997.768,93.347l.035-.075a1.131,1.131,0,0,1,1.618-.477,10.4,10.4,0,0,0,5.288,1.452c3.31,0,4.732-1.285,4.732-2.954,0-4.677-11.6-1.723-11.6-8.834,0-2.955,2.3-5.471,7.331-5.471a12,12,0,0,1,5.261,1.169,1.13,1.13,0,0,1,.516,1.44l-.043.1a1.135,1.135,0,0,1-1.549.58,9.826,9.826,0,0,0-4.186-.967c-3.255,0-4.65,1.367-4.65,3.036,0,4.678,11.6,1.751,11.6,8.781,0,2.927-2.352,5.443-7.412,5.443a12.273,12.273,0,0,1-6.526-1.779A1.146,1.146,0,0,1,997.768,93.347Z" transform="translate(-928.644 -76.988)" fill="#444"/>
      <path id="Path_9" data-name="Path 9" d="M1035.447,79.649h-4.295a1.135,1.135,0,0,1-1.135-1.136V78.4a1.135,1.135,0,0,1,1.135-1.135h13.568a1.135,1.135,0,0,1,1.135,1.135v.109a1.136,1.136,0,0,1-1.135,1.136h-4.295a1.134,1.134,0,0,0-1.135,1.135v14.5a1.136,1.136,0,0,1-1.135,1.136h-.438a1.135,1.135,0,0,1-1.135-1.136v-14.5A1.135,1.135,0,0,0,1035.447,79.649Z" transform="translate(-935.763 -77.05)" fill="#444"/>
      <path id="Path_10" data-name="Path 10" d="M1069.44,95.171v.109a1.136,1.136,0,0,1-1.135,1.136h-11.625a1.136,1.136,0,0,1-1.136-1.136V78.4a1.135,1.135,0,0,1,1.136-1.135h11.242a1.135,1.135,0,0,1,1.135,1.135v.109a1.135,1.135,0,0,1-1.135,1.136h-8.507a1.135,1.135,0,0,0-1.135,1.135v3.611a1.135,1.135,0,0,0,1.135,1.135h7.331a1.135,1.135,0,0,1,1.135,1.135v.055a1.136,1.136,0,0,1-1.135,1.136h-7.331a1.135,1.135,0,0,0-1.135,1.135V92.9a1.135,1.135,0,0,0,1.135,1.135h8.89A1.135,1.135,0,0,1,1069.44,95.171Z" transform="translate(-941.379 -77.05)" fill="#444"/>
      <path id="Path_11" data-name="Path 11" d="M1081.578,77.269h.465a1.135,1.135,0,0,1,1.135,1.135V92.9a1.135,1.135,0,0,0,1.135,1.135h8.1a1.135,1.135,0,0,1,1.136,1.135v.109a1.136,1.136,0,0,1-1.136,1.136h-10.831a1.135,1.135,0,0,1-1.135-1.136V78.4A1.135,1.135,0,0,1,1081.578,77.269Z" transform="translate(-946.856 -77.05)" fill="#444"/>
      <path id="Path_12" data-name="Path 12" d="M916.312,117.747l-3.09,6.947h-.964l-3.077-6.947h.977l2.6,5.917,2.628-5.917Z" transform="translate(-909.18 -85.954)" fill="#444"/>
      <path id="Path_13" data-name="Path 13" d="M925.5,120.373v4.306h-.9V123.6a2.608,2.608,0,0,1-2.391,1.149c-1.572,0-2.536-.818-2.536-2.02,0-1.069.687-1.968,2.681-1.968h2.206v-.423c0-1.188-.674-1.836-1.968-1.836a3.541,3.541,0,0,0-2.311.819l-.423-.7a4.416,4.416,0,0,1,2.827-.938C924.482,117.679,925.5,118.577,925.5,120.373Zm-.938,2.219v-1.136h-2.179c-1.347,0-1.783.529-1.783,1.242,0,.806.647,1.308,1.757,1.308A2.223,2.223,0,0,0,924.562,122.592Z" transform="translate(-911.489 -85.939)" fill="#444"/>
      <rect id="Rectangle_1" data-name="Rectangle 1" width="0.938" height="9.8" transform="translate(17.085 28.939)" fill="#444"/>
      <path id="Path_14" data-name="Path 14" d="M942.556,117.747v6.947h-.9v-1.268a2.764,2.764,0,0,1-2.5,1.334,2.691,2.691,0,0,1-2.932-2.984v-4.028h.938v3.935a1.945,1.945,0,0,0,2.087,2.232,2.259,2.259,0,0,0,2.364-2.523v-3.645Z" transform="translate(-915.131 -85.954)" fill="#444"/>
      <path id="Path_15" data-name="Path 15" d="M954.234,121.5h-5.81a2.571,2.571,0,0,0,2.734,2.416,2.735,2.735,0,0,0,2.126-.912l.529.608a3.674,3.674,0,0,1-6.327-2.4,3.346,3.346,0,0,1,3.395-3.526,3.311,3.311,0,0,1,3.368,3.526C954.248,121.285,954.234,121.39,954.234,121.5Zm-5.81-.7h4.926a2.468,2.468,0,0,0-4.926,0Z" transform="translate(-917.607 -85.939)" fill="#444"/>
      <path id="Path_16" data-name="Path 16" d="M969.475,120.373v4.306h-.9V123.6a2.606,2.606,0,0,1-2.39,1.149c-1.572,0-2.536-.818-2.536-2.02,0-1.069.687-1.968,2.681-1.968h2.206v-.423c0-1.188-.674-1.836-1.969-1.836a3.54,3.54,0,0,0-2.31.819l-.423-.7a4.414,4.414,0,0,1,2.827-.938C968.458,117.679,969.475,118.577,969.475,120.373Zm-.937,2.219v-1.136h-2.18c-1.346,0-1.782.529-1.782,1.242,0,.806.647,1.308,1.757,1.308A2.224,2.224,0,0,0,968.538,122.592Z" transform="translate(-921.163 -85.939)" fill="#444"/>
      <path id="Path_17" data-name="Path 17" d="M981.236,114.089v9.8h-.9v-1.374a3.008,3.008,0,0,1-2.681,1.44,3.533,3.533,0,0,1,0-7.065,3.034,3.034,0,0,1,2.641,1.374v-4.174Zm-.925,6.327a2.585,2.585,0,1,0-2.575,2.707A2.541,2.541,0,0,0,980.311,120.416Z" transform="translate(-923.483 -85.15)" fill="#444"/>
      <path id="Path_18" data-name="Path 18" d="M993.389,114.089v9.8h-.9v-1.374a3.008,3.008,0,0,1-2.681,1.44,3.533,3.533,0,0,1,0-7.065,3.035,3.035,0,0,1,2.641,1.374v-4.174Zm-.925,6.327a2.585,2.585,0,1,0-2.575,2.707A2.541,2.541,0,0,0,992.464,120.416Z" transform="translate(-926.156 -85.15)" fill="#444"/>
      <path id="Path_19" data-name="Path 19" d="M1005.252,121.5h-5.811a2.572,2.572,0,0,0,2.734,2.416A2.735,2.735,0,0,0,1004.3,123l.528.608a3.673,3.673,0,0,1-6.326-2.4,3.346,3.346,0,0,1,3.395-3.526,3.31,3.31,0,0,1,3.367,3.526C1005.265,121.285,1005.252,121.39,1005.252,121.5Zm-5.811-.7h4.927a2.468,2.468,0,0,0-4.927,0Z" transform="translate(-928.83 -85.939)" fill="#444"/>
      <path id="Path_20" data-name="Path 20" d="M1016.444,114.089v9.8h-.9v-1.374a3.007,3.007,0,0,1-2.681,1.44,3.533,3.533,0,0,1,0-7.065,3.036,3.036,0,0,1,2.642,1.374v-4.174Zm-.925,6.327a2.585,2.585,0,1,0-2.575,2.707A2.54,2.54,0,0,0,1015.519,120.416Z" transform="translate(-931.228 -85.15)" fill="#444"/>
      <path id="Path_21" data-name="Path 21" d="M1026.331,123.886l.423-.74a4.188,4.188,0,0,0,2.469.78c1.321,0,1.863-.449,1.863-1.136,0-1.809-4.5-.382-4.5-3.129,0-1.136.977-1.981,2.747-1.981a4.7,4.7,0,0,1,2.456.647l-.409.752a3.56,3.56,0,0,0-2.047-.594c-1.255,0-1.809.488-1.809,1.149,0,1.875,4.5.462,4.5,3.13,0,1.2-1.056,1.98-2.866,1.98A4.641,4.641,0,0,1,1026.331,123.886Z" transform="translate(-934.952 -85.939)" fill="#444"/>
      <path id="Path_22" data-name="Path 22" d="M1042.372,121.5h-5.81a2.571,2.571,0,0,0,2.733,2.416,2.738,2.738,0,0,0,2.127-.912l.528.608a3.673,3.673,0,0,1-6.326-2.4,3.346,3.346,0,0,1,3.394-3.526,3.311,3.311,0,0,1,3.368,3.526C1042.386,121.285,1042.372,121.39,1042.372,121.5Zm-5.81-.7h4.926a2.468,2.468,0,0,0-4.926,0Z" transform="translate(-936.996 -85.939)" fill="#444"/>
      <path id="Path_23" data-name="Path 23" d="M1050.922,117.679v.911c-.079,0-.158-.013-.225-.013a2.247,2.247,0,0,0-2.338,2.562v3.54h-.938v-6.947h.9v1.36A2.619,2.619,0,0,1,1050.922,117.679Z" transform="translate(-939.591 -85.939)" fill="#444"/>
      <path id="Path_24" data-name="Path 24" d="M1060.612,117.747l-3.09,6.947h-.964l-3.077-6.947h.978l2.6,5.917,2.628-5.917Z" transform="translate(-940.924 -85.954)" fill="#444"/>
      <path id="Path_25" data-name="Path 25" d="M1064.721,114.75a.677.677,0,0,1,.686-.661.667.667,0,0,1,.687.647.687.687,0,0,1-1.374.013Zm.211,2.193h.938v6.947h-.937Z" transform="translate(-943.397 -85.15)" fill="#444"/>
      <path id="Path_26" data-name="Path 26" d="M1069.325,121.205a3.419,3.419,0,0,1,3.579-3.526,3.035,3.035,0,0,1,2.722,1.374l-.7.475a2.361,2.361,0,0,0-2.02-1.03,2.709,2.709,0,0,0,0,5.416,2.349,2.349,0,0,0,2.02-1.017l.7.476a3.066,3.066,0,0,1-2.722,1.373A3.43,3.43,0,0,1,1069.325,121.205Z" transform="translate(-944.41 -85.939)" fill="#444"/>
      <path id="Path_27" data-name="Path 27" d="M1086.128,121.5h-5.811a2.572,2.572,0,0,0,2.734,2.416,2.735,2.735,0,0,0,2.126-.912l.529.608a3.674,3.674,0,0,1-6.327-2.4,3.346,3.346,0,0,1,3.395-3.526,3.31,3.31,0,0,1,3.367,3.526C1086.141,121.285,1086.128,121.39,1086.128,121.5Zm-5.811-.7h4.927a2.468,2.468,0,0,0-4.927,0Z" transform="translate(-946.621 -85.939)" fill="#444"/>
      <path id="Path_28" data-name="Path 28" d="M1089.941,123.886l.423-.74a4.191,4.191,0,0,0,2.47.78c1.321,0,1.862-.449,1.862-1.136,0-1.809-4.5-.382-4.5-3.129,0-1.136.978-1.981,2.747-1.981a4.7,4.7,0,0,1,2.457.647l-.41.752a3.558,3.558,0,0,0-2.047-.594c-1.254,0-1.81.488-1.81,1.149,0,1.875,4.5.462,4.5,3.13,0,1.2-1.057,1.98-2.866,1.98A4.646,4.646,0,0,1,1089.941,123.886Z" transform="translate(-948.945 -85.939)" fill="#444"/>
    </g>
    <g id="Group_3" data-name="Group 3" transform="translate(822.761 69.487)">
      <path id="Path_29" data-name="Path 29" d="M877.752,89.988l-1.43.449a7.031,7.031,0,0,1-8.814-4.6l-.449-1.43a5.022,5.022,0,0,0-6.3-3.287l-1.429.449a5.022,5.022,0,0,0-3.287,6.3l.449,1.43a5.022,5.022,0,0,0,6.3,3.287l1.43-.449a7.031,7.031,0,0,1,8.814,4.6l.449,1.43a7.031,7.031,0,0,1-4.6,8.814l-1.43.449a5.022,5.022,0,0,0-3.287,6.3l.449,1.43a5.021,5.021,0,0,0,6.3,3.286l1.43-.449a5.023,5.023,0,0,0,3.287-6.3l-.449-1.43a7.031,7.031,0,0,1,4.6-8.814l1.43-.449a5.022,5.022,0,0,0,3.287-6.3l-.449-1.43A5.022,5.022,0,0,0,877.752,89.988Z" transform="translate(-830.032 -71.995)" fill="#4bac3f"/>
      <path id="Path_30" data-name="Path 30" d="M863.2,106.655l1.43-.449a5.023,5.023,0,0,0,3.287-6.3l-.449-1.43a5.022,5.022,0,0,0-6.3-3.287l-1.43.449h0a7.032,7.032,0,0,1-8.814-4.6l-.448-1.43a5.023,5.023,0,0,0-6.3-3.287l-1.43.449a5.022,5.022,0,0,0-3.287,6.3l.449,1.43a5.022,5.022,0,0,0,6.3,3.287l1.43-.449a7.031,7.031,0,0,1,8.814,4.6l.448,1.43a7.031,7.031,0,0,1-4.6,8.815l-1.43.448a5.022,5.022,0,0,0-3.286,6.3l.448,1.43a5.024,5.024,0,0,0,6.3,3.287l1.43-.449a5.023,5.023,0,0,0,3.287-6.3l-.449-1.43a7.031,7.031,0,0,1,4.6-8.814Z" transform="translate(-826.386 -73.14)" fill="#3778c2"/>
      <path id="Path_31" data-name="Path 31" d="M840.43,103.751a5.022,5.022,0,0,0,6.3,3.287l1.429-.449a5.021,5.021,0,0,0,3.287-6.3l-.449-1.43a5.022,5.022,0,0,0-6.3-3.287l-1.43.449a7.031,7.031,0,0,1-8.814-4.6L834,90a7.032,7.032,0,0,1,4.6-8.815l1.43-.449a5.022,5.022,0,0,0,3.287-6.3l-.449-1.43a5.022,5.022,0,0,0-6.3-3.286l-1.429.449a5.022,5.022,0,0,0-3.287,6.3l.449,1.43a7.031,7.031,0,0,1-4.6,8.814h0l-1.429.449a5.022,5.022,0,0,0-3.287,6.3l.449,1.43a5.022,5.022,0,0,0,6.3,3.287l1.43-.449h0a7.031,7.031,0,0,1,8.814,4.6Z" transform="translate(-822.76 -69.487)" fill="#f8a300"/>
    </g>
  </g>
</svg>
