<svg xmlns="http://www.w3.org/2000/svg" width="32.465" height="32.511" viewBox="0 0 32.465 32.511">
  <path id="Vector" d="M11.459,6.218a5.306,5.306,0,0,1,.62,1.085,2.451,2.451,0,0,1,.217.946,2.1,2.1,0,0,1-.326,1.1,5.274,5.274,0,0,1-.868,1.1L9.924,11.676a.83.83,0,0,0-.248.62,1.408,1.408,0,0,0,.047.357c.047.124.093.217.124.31a12.867,12.867,0,0,0,1.442,1.985c.7.806,1.442,1.628,2.248,2.45.837.822,1.644,1.582,2.465,2.279A11.9,11.9,0,0,0,18,21.1c.078.031.171.078.279.124a1.071,1.071,0,0,0,.388.062.853.853,0,0,0,.636-.264l1.178-1.163a4.757,4.757,0,0,1,1.116-.868,2.065,2.065,0,0,1,1.1-.326,2.475,2.475,0,0,1,.946.2,6,6,0,0,1,1.085.6l5.132,3.644a2.352,2.352,0,0,1,.853.992,3.181,3.181,0,0,1,.248,1.209,3.947,3.947,0,0,1-.388,1.69,6.4,6.4,0,0,1-1.054,1.582,6.99,6.99,0,0,1-2.543,1.83,7.786,7.786,0,0,1-3.024.589A12.922,12.922,0,0,1,18.9,29.879a27.234,27.234,0,0,1-5.334-3.07,44.579,44.579,0,0,1-5.086-4.342A44.057,44.057,0,0,1,4.155,17.4,27.643,27.643,0,0,1,1.116,12.11,13.06,13.06,0,0,1,0,7.04,8.021,8.021,0,0,1,.558,4.047,7.137,7.137,0,0,1,2.341,1.458,4.543,4.543,0,0,1,5.566,0,2.914,2.914,0,0,1,6.822.279a2.528,2.528,0,0,1,1.039.868" transform="translate(0.75 0.75)" fill="none" stroke="#fff" stroke-linecap="round" stroke-linejoin="round" stroke-width="1.5"/>
</svg>
