<svg xmlns="http://www.w3.org/2000/svg" width="50" height="50" viewBox="0 0 50 50">
  <g id="vuesax_linear_setting-2" data-name="vuesax/linear/setting-2" transform="translate(-300 -188)">
    <g id="setting-2" transform="translate(300 188)">
      <path id="Vector" d="M12.5,6.25A6.25,6.25,0,1,1,6.25,0,6.25,6.25,0,0,1,12.5,6.25Z" transform="translate(18.75 18.75)" fill="none" stroke="#292d32" stroke-linecap="round" stroke-linejoin="round" stroke-width="2"/>
      <path id="Vector-2" data-name="Vector" d="M0,21.5V17.831a3.97,3.97,0,0,1,3.958-3.958c3.771,0,5.312-2.667,3.417-5.938a3.956,3.956,0,0,1,1.458-5.4l3.6-2.062a3.477,3.477,0,0,1,4.75,1.25l.229.4c1.875,3.271,4.958,3.271,6.854,0l.229-.4A3.477,3.477,0,0,1,29.25.477l3.6,2.062a3.956,3.956,0,0,1,1.458,5.4c-1.9,3.271-.354,5.938,3.417,5.938a3.97,3.97,0,0,1,3.958,3.958V21.5a3.97,3.97,0,0,1-3.958,3.958c-3.771,0-5.313,2.667-3.417,5.938a3.951,3.951,0,0,1-1.458,5.4l-3.6,2.063A3.477,3.477,0,0,1,24.5,37.6l-.229-.4c-1.875-3.271-4.958-3.271-6.854,0l-.229.4a3.477,3.477,0,0,1-4.75,1.25l-3.6-2.062a3.956,3.956,0,0,1-1.458-5.4c1.9-3.271.354-5.937-3.417-5.937A3.97,3.97,0,0,1,0,21.5Z" transform="translate(4.167 5.336)" fill="none" stroke="#292d32" stroke-linecap="round" stroke-linejoin="round" stroke-width="2"/>
      <path id="Vector-3" data-name="Vector" d="M0,0H50V50H0Z" fill="none" opacity="0"/>
    </g>
  </g>
</svg>
