<svg xmlns="http://www.w3.org/2000/svg" width="36.832" height="36.832" viewBox="0 0 36.832 36.832">
  <g id="vuesax_broken_home-hashtag" data-name="vuesax/broken/home-hashtag" transform="translate(-556 -188)">
    <g id="home-hashtag" transform="translate(556 188)">
      <path id="Vector" d="M9.208,0H4.6A4.618,4.618,0,0,0,0,4.6v4.6a4.618,4.618,0,0,0,4.6,4.6h4.6a4.618,4.618,0,0,0,4.6-4.6V4.6" transform="translate(11.51 13.812)" fill="none" stroke="#fff" stroke-linecap="round" stroke-linejoin="round" stroke-width="1.5"/>
      <path id="Vector-2" data-name="Vector" d="M0,0V13.812" transform="translate(18.416 13.812)" fill="none" stroke="#fff" stroke-linecap="round" stroke-linejoin="round" stroke-width="1.5"/>
      <path id="Vector-3" data-name="Vector" d="M0,0H13.812" transform="translate(11.51 20.718)" fill="none" stroke="#fff" stroke-linecap="round" stroke-linejoin="round" stroke-width="1.5"/>
      <path id="Vector-4" data-name="Vector" d="M30.693,13.018a7.249,7.249,0,0,0-2.762-5.295L18.447,1.078a6.886,6.886,0,0,0-7.673.184L2.5,7.708A7.3,7.3,0,0,0,0,12.8V24.175a6.484,6.484,0,0,0,6.461,6.476H24.232a6.481,6.481,0,0,0,6.461-6.461V19.433" transform="translate(3.069 3.096)" fill="none" stroke="#fff" stroke-linecap="round" stroke-linejoin="round" stroke-width="1.5"/>
      <path id="Vector-5" data-name="Vector" d="M0,0H36.832V36.832H0Z" fill="none" opacity="0"/>
    </g>
  </g>
</svg>
